# xmcd
#
# Track frame offsets:
#	150
#	13988
#	24739
#	33987
#	44782
#	56106
#	68468
#	77031
#	88580
#	98919
#	109240
#	124215
#
# Disc length: 1785 seconds
#
# Revision: 0
# Processed by: cddbd v1.5.2PL0 Copyright (c) Steve Scherf et al.
# Submitted via: EasyCDDAExtractor 2010.6.0.0
#
DISCID=a306f70c
DTITLE=Pierce Webb - Songs Of Faith
DYEAR=1900
DGENRE=
TTITLE0=I'm Bound For The Kingdom
TTITLE1=Hold Fast To The Right
TTITLE2=Whispering Hope
TTITLE3=I'll Fly Away
TTITLE4=Leaning On The Everlasting Arms
TTITLE5=When Got Dips His Love In My Heart
TTITLE6=Where We'll Never Grow Old
TTITLE7=Old Country Church
TTITLE8=I'll Meet You In The Morning
TTITLE9=If We Never Meet Again
TTITLE10=I Feel Like Traveling On
TTITLE11=He's Got The Whole World In His Hands
EXTD=
EXTT0=
EXTT1=
EXTT2=
EXTT3=
EXTT4=
EXTT5=
EXTT6=
EXTT7=
EXTT8=
EXTT9=
EXTT10=
EXTT11=
PLAYORDER=
